<?xml version="1.0" encoding="UTF-8" standalone="no"?>
<svg
   width="12"
   height="12"
   viewBox="0 0 12 12"
   version="1.1"
   id="svg4"
   sodipodi:docname="glyphs.svg"
   inkscape:version="1.4.2 (ebf0e940, 2025-05-08)"
   inkscape:export-filename="../GitHub/avery.pet/public/glyphs/la.svg"
   inkscape:export-xdpi="96"
   inkscape:export-ydpi="96"
   xmlns:inkscape="http://www.inkscape.org/namespaces/inkscape"
   xmlns:sodipodi="http://sodipodi.sourceforge.net/DTD/sodipodi-0.dtd"
   xmlns="http://www.w3.org/2000/svg"
   xmlns:svg="http://www.w3.org/2000/svg">
  <defs
     id="defs4">
    <inkscape:path-effect
       effect="spiro"
       id="path-effect10-1-9-0-0-9-4-53-6"
       is_visible="true"
       lpeversion="1" />
    <inkscape:path-effect
       effect="spiro"
       id="path-effect990-2"
       is_visible="true"
       lpeversion="1" />
  </defs>
  <sodipodi:namedview
     id="namedview4"
     pagecolor="#ffffff"
     bordercolor="#000000"
     borderopacity="0.25"
     inkscape:showpageshadow="2"
     inkscape:pageopacity="0.0"
     inkscape:pagecheckerboard="0"
     inkscape:deskcolor="#d1d1d1"
     showgrid="true"
     inkscape:zoom="11.34022"
     inkscape:cx="9.7440786"
     inkscape:cy="108.02259"
     inkscape:window-width="1472"
     inkscape:window-height="833"
     inkscape:window-x="0"
     inkscape:window-y="33"
     inkscape:window-maximized="1"
     inkscape:current-layer="svg4"
     showguides="false">
    <inkscape:grid
       id="grid4"
       units="px"
       originx="0"
       originy="0"
       spacingx="1"
       spacingy="1"
       empcolor="#e50009"
       empopacity="0.30196078"
       color="#0099e5"
       opacity="0.14901961"
       empspacing="6"
       enabled="true"
       visible="true" />
  </sodipodi:namedview>
  <path
     style="fill:none;fill-opacity:1;stroke:#000000;stroke-width:1.5;stroke-linecap:round;stroke-linejoin:round;stroke-dasharray:none;stroke-opacity:1"
     d="M 6,3 C 5.4764012,3 4.9560267,3.2155462 4.5857864,3.5857864 4.2155462,3.9560267 4,4.4764012 4,5 4,5.5235988 4.2155462,6.0439733 4.5857864,6.4142136 4.9560267,6.7844538 5.4764012,7 6,7 6.5235988,7 7.0439733,6.7844538 7.4142136,6.4142136 7.7844538,6.0439733 8,5.5235988 8,5 8,4.4764012 7.7844538,3.9560267 7.4142136,3.5857864 7.0439733,3.2155462 6.5235988,3 6,3 Z"
     id="path10-7-5-5-9-4-8-5-9"
     sodipodi:nodetypes="sssss"
     inkscape:original-d="M 6,3 C 5.364583,2.27083 4.666667,4.33333 4,5 3.333333,5.66667 5.333333,6.33333 6,7 6.666667,7.66667 7.333333,5.66667 8,5 8.666667,4.33333 6.635417,3.72917 6,3 Z"
     inkscape:path-effect="#path-effect10-1-9-0-0-9-4-53-6" />
  <path
     style="fill:none;stroke:#000000;stroke-width:1.5;stroke-linecap:round;stroke-dasharray:none;stroke-opacity:1;stop-color:#000000"
     d="M 1,11 C 2.7107514,10.999846 4.4207857,10.657839 6,10 6.9045299,9.6232081 7.7742974,9.1379806 8.4944621,8.473519 9.2146267,7.8090573 9.7802546,6.9549128 10,6 10.274842,4.8056621 9.9725246,3.4927771 9.2059555,2.5365589 8.4393864,1.5803408 7.2255535,1 6,1 4.7744465,1 3.5606136,1.5803408 2.7940445,2.5365589 2.0274754,3.4927771 1.7251578,4.8056621 2,6 2.2197454,6.9549128 2.7853733,7.8090573 3.5055379,8.473519 4.2257026,9.1379806 5.0954701,9.6232081 6,10 c 1.5792143,0.657839 3.2892486,0.999846 5,1"
     id="path988-1"
     inkscape:path-effect="#path-effect990-2"
     inkscape:original-d="M 1,11 C 2.667667,10.66767 4.334333,10.33433 6,10 7.665667,9.66567 8.667667,7.33433 10,6 11.332333,4.66567 7.334333,2.66767 6,1 4.665667,-0.66767 3.334333,4.33433 2,6 c -1.334333,1.66567 2.667667,2.66767 4,4 1.332333,1.33233 3.334333,0.66767 5,1" />
</svg>
