<?xml version="1.0" encoding="UTF-8" standalone="no"?>
<svg
   width="12"
   height="12"
   viewBox="0 0 12 12"
   version="1.1"
   id="svg4"
   xmlns="http://www.w3.org/2000/svg"
   xmlns:svg="http://www.w3.org/2000/svg">
  <defs
     id="defs4" />
  <path
     style="fill:none;fill-opacity:1;stroke:#000000;stroke-width:1.5;stroke-linecap:round;stroke-linejoin:round;stroke-dasharray:none;stroke-opacity:1"
     d="M 41,11 C 39.691003,11 38.390067,10.461135 37.464466,9.5355339 36.538865,8.6099333 36,7.3089969 36,6 36,4.6910031 36.538865,3.3900667 37.464466,2.4644661 38.390067,1.5388655 39.691003,1 41,1"
     id="path11-9-0-2"
     transform="rotate(-90,20.9993,20.999704)" />
  <path
     style="fill:none;fill-opacity:1;stroke:#000000;stroke-width:1.5;stroke-linecap:round;stroke-linejoin:round;stroke-dasharray:none;stroke-opacity:1"
     d="M 41,11 C 39.691003,11 38.390067,10.461135 37.464466,9.5355339 36.538865,8.6099333 36,7.3089969 36,6 36,4.6910031 36.538865,3.3900667 37.464466,2.4644661 38.390067,1.5388655 39.691003,1 41,1"
     id="path11-9-3-6"
     transform="matrix(0,1,1,0,0,-30)" />
</svg>
